<?xml version="1.0" encoding="UTF-8"?>
<!DOCTYPE svg PUBLIC "-//W3C//DTD SVG 1.1//EN" "http://www.w3.org/Graphics/SVG/1.1/DTD/svg11.dtd">
<!-- Creator: CorelDRAW 2019 (64-Bit) -->
<svg xmlns="http://www.w3.org/2000/svg" xml:space="preserve" width="30.009mm" height="5.904mm" version="1.1" style="shape-rendering:geometricPrecision; text-rendering:geometricPrecision; image-rendering:optimizeQuality; fill-rule:evenodd; clip-rule:evenodd"
viewBox="0 0 30009 5904"
 xmlns:xlink="http://www.w3.org/1999/xlink"
 xmlns:xodm="http://www.corel.com/coreldraw/odm/2003">
 <defs>
  <style type="text/css">
   <![CDATA[
    .fil0 {fill:#498763}
    .fil1 {fill:#4FA171}
    .fil2 {fill:white}
    .fil3 {fill:white;fill-rule:nonzero}
   ]]>
  </style>
 </defs>
 <g id="Слой_x0020_1">
  <metadata id="CorelCorpID_0Corel-Layer"/>
  <g id="_256349458768">
   <path class="fil0" d="M175.4 11l29507.4 0c138.1,0 251,107.6 251,238.6l0 5427.1c0,131 -113.2,238.6 -251,238.6l-29507.4 0c-137.8,0 -251,-107.3 -251,-238.6l0 -5427.1c0,-131.3 112.9,-238.6 251,-238.6z"/>
   <path class="fil1" d="M175.5 11l323.8 0 0 5904.3 -323.8 0c-137.9,0 -251.1,-107.3 -251.1,-238.6l0 -5427.1c0,-131.3 112.9,-238.6 251.1,-238.6z"/>
   <g>
    <path class="fil2" d="M3884.4 2827.9c24.5,-24.5 24.5,-64.2 0,-88.7 -24.5,-24.5 -64.2,-24.5 -88.7,0 -24.5,24.5 -24.5,64.2 0,88.7 24.5,24.5 64.2,24.5 88.7,0zm0 0z"/>
    <path class="fil3" d="M1716.4 4568.9l3086 0c25.4,0 48.2,-15.3 57.9,-38.7 9.7,-23.5 4.4,-50.4 -13.6,-68.4l-3085.9 -3085.9c-18,-18 -45,-23.3 -68.4,-13.6 -23.4,9.7 -38.7,32.5 -38.7,57.9l0 3086c0,34.6 28.1,62.7 62.7,62.7zm62.7 -2997.3l504.6 504.6 -133.1 133c-24.5,24.5 -24.5,64.2 0,88.7 24.4,24.5 64.2,24.5 88.7,0l133.1 -133 266.1 266.1 -133.1 133c-24.5,24.5 -24.5,64.2 0,88.7 24.5,24.5 64.2,24.6 88.7,0l133.1 -133 266.1 266.1 -133.1 133.1c-24.5,24.4 -24.5,64.2 0,88.7 24.5,24.5 64.2,24.5 88.7,0l133.1 -133.1 266.1 266.1 -133 133.1c-24.5,24.5 -24.5,64.2 0,88.7 24.5,24.5 64.2,24.5 88.7,0l133 -133.1 266.1 266.1 -133 133.1c-24.5,24.5 -24.5,64.2 0,88.7 24.5,24.5 64.2,24.5 88.7,0l133 -133.1 266.1 266.2 -133 133.1c-24.5,24.4 -24.5,64.2 0,88.6 24.5,24.5 64.2,24.5 88.7,0l133.1 -133 504.5 504.5 -2871.9 0 0 -2871.9zm0 0z"/>
    <path class="fil3" d="M2300.2 2661.6c-18,-17.9 -44.9,-23.3 -68.4,-13.6 -23.4,9.7 -38.7,32.6 -38.7,58l0 1260.8c0,34.6 28.1,62.7 62.7,62.7l1260.8 0c25.4,0 48.3,-15.3 58,-38.7 9.7,-23.5 4.3,-50.5 -13.6,-68.4l-1260.8 -1260.8zm18.4 1242.5l0 -1046.7 1046.6 1046.7 -1046.6 0zm0 0z"/>
    <path class="fil2" d="M3618.3 2650.5c24.5,24.5 64.2,24.5 88.7,0 24.5,-24.4 24.5,-64.2 0,-88.7l-266.1 -266.1c-24.5,-24.5 -64.2,-24.5 -88.7,0 -24.5,24.5 -24.5,64.2 0,88.7l266.1 266.1zm0 0z"/>
    <path class="fil2" d="M2605.8 1996.8l1760.7 1760.6c73.5,73.5 192.5,73.5 266.1,0l177.4 -177.4c73.3,-73.3 73.3,-192.7 0,-266.1l-1760.6 -1760.7c-6.9,-6.8 -15.3,-12 -24.6,-15.1l-532.2 -177.4c-22.5,-7.5 -47.4,-1.6 -64.2,15.2 -16.8,16.8 -22.6,41.6 -15.1,64.1l177.4 532.3c3,9.2 8.2,17.6 15.1,24.5l0 0zm2115.4 1405.8c24.5,24.4 24.5,64.3 0.1,88.7l-177.4 177.4c-24.5,24.5 -64.2,24.5 -88.7,0l-135.9 -135.9 266.1 -266.1 135.8 135.9zm-224.5 -224.6l-266.2 266.1 -88.7 -88.7 266.2 -266.1 88.7 88.7zm-1450.2 -1450.2l1272.8 1272.8 -266.2 266.1 -1272.7 -1272.8 266.1 -266.1zm-95.4 -82l-252.8 252.7 -126.4 -379.1 379.2 126.4zm0 0z"/>
   </g>
  </g>
 </g>
</svg>
