<?xml version="1.0" encoding="UTF-8"?>
<!DOCTYPE svg PUBLIC "-//W3C//DTD SVG 1.1//EN" "http://www.w3.org/Graphics/SVG/1.1/DTD/svg11.dtd">
<!-- Creator: CorelDRAW 2019 (64-Bit) -->
<svg xmlns="http://www.w3.org/2000/svg" xml:space="preserve" width="30.009mm" height="5.904mm" version="1.1" style="shape-rendering:geometricPrecision; text-rendering:geometricPrecision; image-rendering:optimizeQuality; fill-rule:evenodd; clip-rule:evenodd"
viewBox="0 0 30009 5904"
 xmlns:xlink="http://www.w3.org/1999/xlink"
 xmlns:xodm="http://www.corel.com/coreldraw/odm/2003">
 <defs>
  <style type="text/css">
   <![CDATA[
    .fil3 {fill:#FEFEFE}
    .fil0 {fill:#498763}
    .fil1 {fill:#4FA171}
    .fil2 {fill:#FEFEFE;fill-rule:nonzero}
   ]]>
  </style>
 </defs>
 <g id="Слой_x0020_1">
  <metadata id="CorelCorpID_0Corel-Layer"/>
  <g id="_256601375808">
   <path class="fil0" d="M184.8 11l29507.4 0c138.1,0 251,107.6 251,238.6l0 5427.1c0,131 -113.2,238.6 -251,238.6l-29507.4 0c-137.8,0 -251,-107.3 -251,-238.6l0 -5427.1c0,-131.3 112.9,-238.6 251,-238.6z"/>
   <path class="fil1" d="M184.9 11l323.8 0 0 5904.3 -323.8 0c-137.9,0 -251.1,-107.3 -251.1,-238.6l0 -5427.1c0,-131.3 112.9,-238.6 251.1,-238.6z"/>
   <path class="fil2" d="M5021.6 3400.4c-23.5,-9.4 -50.5,-3.5 -68,14.8l-264.2 277.7 0 -1649.4 0.3 0 252.1 -272.1c23.2,-25.1 21.7,-64.2 -3.4,-87.4 0,0 -0.1,-0.1 -0.1,-0.1l-90.7 -84.4 126 -136.1c23.2,-25.1 21.7,-64.2 -3.4,-87.4l-272.2 -252c-25.1,-23.2 -64.2,-21.7 -87.4,3.4l-439.8 474.8 -2141.1 0c-0.2,-170.7 -138.6,-309.1 -309.3,-309.3l-61.9 0c-170.7,0.2 -309,138.6 -309.2,309.3l0 2659.8c0,34.1 27.6,61.8 61.8,61.8l936.4 0 -129.9 156c-21.9,26.3 -18.3,65.3 7.9,87.1l285.3 237.5c26.2,21.8 65.2,18.3 87.1,-8 0,0 0,0 0,0l316.6 -380.4c21.9,-26.3 35.9,-58.3 40.6,-92.2l1133.4 0 -371.8 390.4c-23.5,24.7 -22.5,63.9 2.3,87.4 11.5,11 26.7,17.1 42.6,17.1l1237.1 0c34.2,0 61.8,-27.7 61.8,-61.9l0 -1298.9c0,-25.3 -15.4,-48.1 -38.9,-57.5zm-212.6 -1668.3l-119.6 129.3 0 -90.9 74.2 -80.4 45.4 42zm-243.3 -11l0 0.9 -523.1 565.3 -181.7 -168 630.2 -681.1 181.7 168.1 -106.4 114.8 -0.7 0zm-641.9 624.7l-142.3 41.5 30.4 -145.1 111.9 103.6zm735.4 -1089.2l181.6 168 -84.1 91 -181.6 -168.2 84.1 -90.8zm-3000.7 160l61.9 0c102.5,0 185.6,83.1 185.6,185.6l0 2352.1c-53.3,-40.9 -118.5,-63.2 -185.6,-63.5l-61.9 0c-67.1,0.3 -132.3,22.6 -185.5,63.5l0 -2352.1c0,-102.5 83,-185.6 185.5,-185.6l0 0zm0 2597.9l61.9 0c102.5,0 185.6,83.1 185.6,185.6l-433 0c0,-102.5 83,-185.6 185.5,-185.6zm1161 322.4l-39.6 47.5 -190.1 -158.2 39.5 -47.6c21.8,-26.3 60.8,-29.8 87.1,-8 0,0 0,0.1 0,0.1l95.1 78.9c26.3,21.8 29.9,60.8 8,87.1 0,0 0,0 0,0.1l0 0.1zm-277.1 332.8l-190.1 -158.3 158.3 -190.2 190.1 158.3 -158.3 190.2zm386.7 -469.6c-10.3,-17.1 -23.3,-32.4 -38.5,-45.4l-95.1 -79.1c-78.7,-65.6 -195.7,-54.9 -261.3,23.9l-83.9 100.6 -420.6 0 0 -2474.2 2026.7 0 -328.3 354.8c-4.7,5.3 -8.4,11.4 -11,18 -0.7,1.7 -1.3,3.4 -1.9,5.3 -0.6,1.8 -1.5,3.7 -2,5.7l-73.8 353c-7,33.5 14.5,66.2 47.9,73.2 9.9,2.1 20.2,1.7 29.9,-1.2l346.4 -100.9c1.6,-0.5 3,-1.4 4.5,-2 1.6,-0.5 3.2,-1.3 4.9,-2.2 6.9,-3.1 13.2,-7.5 18.5,-13l474.2 -512.5 0 1918.7 -359.4 377.3 -1277.2 0zm2007.7 494.8l-1030.9 0 1030.9 -1082.4 0 1082.4zm0 0z"/>
   <path class="fil3" d="M4070.9 3457.9l-433 0 0 -680.4c-0.1,-16.5 -6.6,-32.2 -18.2,-43.8l-371.1 -371.2c-24.2,-24.1 -63.3,-24.1 -87.5,0l-371.1 371.2c-11.6,11.6 -18,27.4 -18.1,43.8l0 680.4 -433 0c-34.1,0 -61.8,27.7 -61.8,61.8 0,34.2 27.7,61.9 61.8,61.9l1732 0c34.1,0 61.8,-27.7 61.8,-61.9 0,-34.1 -27.7,-61.8 -61.8,-61.8zm-866 -964.1l221.8 221.8 -443.6 0 221.8 -221.8zm-309.3 345.5l618.6 0 0 618.6 -618.6 0 0 -618.6zm0 0z"/>
   <path class="fil3" d="M3143 2097.1l123.8 0 0 123.7 -123.8 0 0 -123.7zm0 0z"/>
   <path class="fil3" d="M3143 3705.3l123.8 0 0 123.7 -123.8 0 0 -123.7zm0 0z"/>
  </g>
 </g>
</svg>
