<?xml version="1.0" encoding="UTF-8"?>
<!DOCTYPE svg PUBLIC "-//W3C//DTD SVG 1.1//EN" "http://www.w3.org/Graphics/SVG/1.1/DTD/svg11.dtd">
<!-- Creator: CorelDRAW 2019 (64-Bit) -->
<svg xmlns="http://www.w3.org/2000/svg" xml:space="preserve" width="30.009mm" height="5.904mm" version="1.1" style="shape-rendering:geometricPrecision; text-rendering:geometricPrecision; image-rendering:optimizeQuality; fill-rule:evenodd; clip-rule:evenodd"
viewBox="0 0 30009 5904"
 xmlns:xlink="http://www.w3.org/1999/xlink"
 xmlns:xodm="http://www.corel.com/coreldraw/odm/2003">
 <defs>
  <style type="text/css">
   <![CDATA[
    .fil0 {fill:#FEFEFE}
    .fil2 {fill:#544838}
    .fil1 {fill:#B1987F}
   ]]>
  </style>
 </defs>
 <g id="Слой_x0020_1">
  <metadata id="CorelCorpID_0Corel-Layer"/>
  <g id="_256516484656">
   <path class="fil0" d="M184.8 11l29507.4 0c138.1,0 251,107.6 251,238.6l0 5427.1c0,131 -113.2,238.6 -251,238.6l-29507.4 0c-137.8,0 -251,-107.3 -251,-238.6l0 -5427.1c0,-131.3 112.9,-238.6 251,-238.6z"/>
   <path class="fil1" d="M184.9 11l323.8 0 0 5904.3 -323.8 0c-137.9,0 -251.1,-107.3 -251.1,-238.6l0 -5427.1c0,-131.3 112.9,-238.6 251.1,-238.6z"/>
   <path class="fil2" d="M3494 3622.6c-34.9,0 -63.3,28.4 -63.3,63.4 0,35 28.4,63.4 63.3,63.4 35,0 63.4,-28.4 63.4,-63.4 0,-35 -28.4,-63.4 -63.4,-63.4zm0 0z"/>
   <path class="fil1" d="M4419.2 1430.2l-2610.7 0c-174.7,0 -316.8,142.1 -316.8,316.8l0 1939c0,174.7 142.1,316.8 316.8,316.8l988.5 0 0 291.5 -63.3 0c-84.6,0 -164.2,33 -224,92.8 -59.9,59.9 -92.9,139.4 -92.9,224 0,35 28.4,63.4 63.4,63.4l1267.3 0c35,0 63.4,-28.4 63.4,-63.4 0,-174.7 -142.2,-316.8 -316.9,-316.8l-63.3 0 0 -291.5 988.5 0c174.7,0 316.8,-142.1 316.8,-316.8l0 -1939c0,-174.7 -142.1,-316.8 -316.8,-316.8l0 0zm-2610.7 126.7l2610.7 0c104.8,0 190.1,85.3 190.1,190.1l0 1622.2 -291.5 0 0 -1457.4c0,-35 -28.4,-63.4 -63.4,-63.4l-506.9 0c-35,0 -63.4,28.4 -63.4,63.4l0 1457.4 -317.1 0c-0.7,-65.6 -2.4,-130.2 -5.1,-192.8 -11.1,-258.1 -36.4,-431 -49.5,-507 130.7,-96.3 166.4,-274.7 86.5,-413.3l-219.7 -380.4c-11.3,-19.6 -32.2,-31.7 -54.8,-31.7 -22.7,0 -43.6,12.1 -54.9,31.7l-219.7 380.4c-75.4,130.7 -48.7,300 69.7,399.9 -13.7,75.8 -41.4,254.9 -53.4,520.2 -2.9,63.4 -4.7,128 -5.4,193l-317.1 0 0 -950.5c0,-10.1 -2.4,-19.2 -6.3,-27.4 -0.2,-0.3 -0.3,-0.6 -0.4,-0.9l-253.5 -507c-10.7,-21.4 -32.7,-35 -56.7,-35 -24,0 -45.9,13.6 -56.7,35l-253.4 507c-0.2,0.3 -0.3,0.6 -0.4,0.9 -4,8.3 -6.3,17.6 -6.3,27.4l0 950.5 -291.5 0 0 -1622.2c0,-104.8 85.3,-190.1 190.1,-190.1zm2002.4 1812.3l0 -1394.1 380.2 0 0 126.8 -63.4 0c-35,0 -63.4,28.3 -63.4,63.3 0,35 28.4,63.4 63.4,63.4l63.4 0 0 190.1 -63.4 0c-35,0 -63.4,28.4 -63.4,63.4 0,35 28.4,63.3 63.4,63.3l63.4 0 0 190.1 -63.4 0c-35,0 -63.4,28.4 -63.4,63.4 0,35 28.4,63.4 63.4,63.4l63.4 0 0 253.4 -63.4 0c-35,0 -63.4,28.4 -63.4,63.4 0,35 28.4,63.3 63.4,63.3l63.4 0 0 126.8 -380.2 0zm-686.5 -638.1c23,0 45.9,-2.6 68.3,-7.6 11.8,75.4 29.1,208.8 39.3,392.2l-235.9 0c10.7,-183.3 28.8,-318.7 41.3,-396.7 28.1,8 57.3,12.1 87,12.1zm0 -126.7c-144.9,0 -238.2,-157.6 -164.9,-284.9l164.9 -285.4 164.7 285.3c73.1,126.8 -19,285 -164.7,285zm-134.1 638l247.3 0c1.3,41.7 2.2,84 2.7,126.8l-252.8 0c0.4,-42.5 1.4,-84.9 2.8,-126.8zm-700.2 126.8l0 -887.1 126.7 0 0 887.1 -126.7 0zm-253.5 0l0 -887.1 126.8 0 0 887.1 -126.8 0zm39.2 -1013.9l150.9 -301.8 151 301.8 -301.9 0zm1597.5 2192.5l-1118.9 0c9.3,-26.4 24.5,-50.7 44.9,-71.1 35.9,-35.9 83.6,-55.7 134.4,-55.7l760.3 0c82.7,0 153.1,53 179.3,126.8zm-369.4 -253.5l-380.1 0 0 -291.5 380.1 0 0 291.5zm1115.3 -418.2l-2610.7 0c-104.8,0 -190.1,-85.3 -190.1,-190.1l0 -190.1 2990.9 0 0 190.1c0,104.8 -85.3,190.1 -190.1,190.1zm0 0z"/>
   <path class="fil2" d="M3240.6 3622.6l-380.2 0c-35,0 -63.4,28.4 -63.4,63.4 0,35 28.4,63.4 63.4,63.4l380.2 0c35,0 63.3,-28.4 63.3,-63.4 0,-35 -28.3,-63.4 -63.3,-63.4zm0 0z"/>
  </g>
 </g>
</svg>
