<?xml version="1.0" encoding="UTF-8"?>
<!DOCTYPE svg PUBLIC "-//W3C//DTD SVG 1.1//EN" "http://www.w3.org/Graphics/SVG/1.1/DTD/svg11.dtd">
<!-- Creator: CorelDRAW 2019 (64-Bit) -->
<svg xmlns="http://www.w3.org/2000/svg" xml:space="preserve" width="30.009mm" height="5.904mm" version="1.1" style="shape-rendering:geometricPrecision; text-rendering:geometricPrecision; image-rendering:optimizeQuality; fill-rule:evenodd; clip-rule:evenodd"
viewBox="0 0 30009 5904"
 xmlns:xlink="http://www.w3.org/1999/xlink"
 xmlns:xodm="http://www.corel.com/coreldraw/odm/2003">
 <defs>
  <style type="text/css">
   <![CDATA[
    .fil0 {fill:#FEFEFE}
    .fil3 {fill:#544838}
    .fil1 {fill:#B1987F}
    .fil2 {fill:#C39B6D;fill-rule:nonzero}
   ]]>
  </style>
 </defs>
 <g id="Слой_x0020_1">
  <metadata id="CorelCorpID_0Corel-Layer"/>
  <g id="_256599775488">
   <path class="fil0" d="M175.4 11l29507.4 0c138.1,0 251,107.6 251,238.6l0 5427.1c0,131 -113.2,238.6 -251,238.6l-29507.4 0c-137.8,0 -251,-107.3 -251,-238.6l0 -5427.1c0,-131.3 112.9,-238.6 251,-238.6z"/>
   <path class="fil1" d="M175.5 11l323.8 0 0 5904.3 -323.8 0c-137.9,0 -251.1,-107.3 -251.1,-238.6l0 -5427.1c0,-131.3 112.9,-238.6 251.1,-238.6z"/>
   <path class="fil2" d="M2718.7 3294.5c-305,0 -552.2,247.2 -552.2,552.2 0,305 247.2,552.2 552.2,552.2 305,0 552.2,-247.2 552.2,-552.2 -0.3,-304.8 -247.4,-551.9 -552.2,-552.2zm0 994c-244,0 -441.8,-197.8 -441.8,-441.8 0,-244 197.8,-441.8 441.8,-441.8 244,0 441.7,197.8 441.7,441.8 -0.2,243.9 -197.9,441.5 -441.7,441.8zm0 0z"/>
   <path class="fil2" d="M2718.7 3681c67.4,0 110.4,32.7 110.4,55.3l110.5 0c0,-78.5 -69.6,-142.1 -165.7,-160.2l0 -60.7 -110.4 0 0 60.7c-96.2,18 -165.7,81.6 -165.7,160.2 0,92.9 97,165.6 220.9,165.6 67.4,0 110.4,32.7 110.4,55.2 0,22.6 -43,55.3 -110.4,55.3 -67.5,0 -110.5,-32.7 -110.5,-55.3l-110.4 0c0,78.5 69.5,142.1 165.7,160.2l0 60.7 110.4 0 0 -60.7c96.2,-18 165.7,-81.6 165.7,-160.2 0,-92.9 -97.1,-165.6 -220.9,-165.6 -67.5,0 -110.5,-32.7 -110.5,-55.2 0,-22.6 43,-55.3 110.5,-55.3l0 0zm0 0z"/>
   <path class="fil2" d="M4264.9 4509.4l-2319.3 0 0 -1325.4 883.5 0c91.5,0 165.7,-74.1 165.7,-165.6l0 -1380.6 607.4 0 0 662.7 662.7 0 0 773.1 110.4 0 0 -851.2 -695 -695 -685.5 0 0 -55.2c0,-91.5 -74.2,-165.7 -165.7,-165.7l-1214.9 0c-91.5,0 -165.6,74.2 -165.6,165.7l0 1546.2c0,91.5 74.1,165.6 165.6,165.6l220.9 0 0 1435.8 2540.2 0 0 -773.1 -110.4 0 0 662.7zm-552.2 -2793.5l474.1 474.1 -474.1 0 0 -474.1zm-2153.7 1302.5l0 -1546.2c0,-30.5 24.7,-55.3 55.2,-55.3l1214.9 0c30.5,0 55.2,24.8 55.2,55.3l0 1546.2c0,30.5 -24.7,55.2 -55.2,55.2l-1214.9 0c-30.5,0 -55.2,-24.7 -55.2,-55.2zm0 0z"/>
   <path class="fil3" d="M3215.7 2687l110.4 0 0 110.5 -110.4 0 0 -110.5zm0 0z"/>
   <path class="fil3" d="M3436.6 2687l662.6 0 0 110.5 -662.6 0 0 -110.5zm0 0z"/>
   <path class="fil3" d="M3215.7 2466.2l110.4 0 0 110.4 -110.4 0 0 -110.4zm0 0z"/>
   <path class="fil3" d="M3436.6 2466.2l662.6 0 0 110.4 -662.6 0 0 -110.4zm0 0z"/>
   <path class="fil3" d="M3215.7 2907.9l110.4 0 0 110.5 -110.4 0 0 -110.5zm0 0z"/>
   <path class="fil3" d="M3436.6 2907.9l662.6 0 0 110.5 -662.6 0 0 -110.5zm0 0z"/>
   <path class="fil3" d="M3215.7 3128.8l110.4 0 0 110.5 -110.4 0 0 -110.5zm0 0z"/>
   <path class="fil3" d="M3436.6 3128.8l662.6 0 0 110.5 -662.6 0 0 -110.5zm0 0z"/>
   <path class="fil2" d="M2829.1 1472.2l-1214.9 0 0 386.5 1214.9 0 0 -386.5zm-110.4 276.1l-994 0 0 -165.7 994 0 0 165.7zm0 0z"/>
   <path class="fil3" d="M1890.3 1913.9l-110.4 0c-61,0 -110.4,49.5 -110.4,110.5l0 110.4c0,61 49.4,110.5 110.4,110.5l110.4 0c61,0 110.5,-49.5 110.5,-110.5l0 -110.4c0,-61 -49.5,-110.5 -110.5,-110.5l0 0zm-110.4 220.9l0 -110.4 110.4 0 0 110.4 -110.4 0zm0 0z"/>
   <path class="fil3" d="M2276.9 1913.9l-110.4 0c-61,0 -110.5,49.5 -110.5,110.5l0 110.4c0,61 49.5,110.5 110.5,110.5l110.4 0c61,0 110.4,-49.5 110.4,-110.5l0 -110.4c0,-61 -49.4,-110.5 -110.4,-110.5l0 0zm-110.4 220.9l0 -110.4 110.4 0 0 110.4 -110.4 0zm0 0z"/>
   <path class="fil3" d="M2663.5 1913.9l-110.5 0c-61,0 -110.4,49.5 -110.4,110.5l0 110.4c0,61 49.4,110.5 110.4,110.5l110.5 0c60.9,0 110.4,-49.5 110.4,-110.5l0 -110.4c0,-61 -49.5,-110.5 -110.4,-110.5l0 0zm-110.5 220.9l0 -110.4 110.5 0 0 110.4 -110.5 0zm0 0z"/>
   <path class="fil3" d="M1890.3 2300.5l-110.4 0c-61,0 -110.4,49.4 -110.4,110.4l0 110.5c0,61 49.4,110.4 110.4,110.4l110.4 0c61,0 110.5,-49.4 110.5,-110.4l0 -110.5c0,-61 -49.5,-110.4 -110.5,-110.4l0 0zm-110.4 220.9l0 -110.5 110.4 0 0 110.5 -110.4 0zm0 0z"/>
   <path class="fil3" d="M2276.9 2300.5l-110.4 0c-61,0 -110.5,49.4 -110.5,110.4l0 110.5c0,61 49.5,110.4 110.5,110.4l110.4 0c61,0 110.4,-49.4 110.4,-110.4l0 -110.5c0,-61 -49.4,-110.4 -110.4,-110.4l0 0zm-110.4 220.9l0 -110.5 110.4 0 0 110.5 -110.4 0zm0 0z"/>
   <path class="fil3" d="M2663.5 2300.5l-110.5 0c-61,0 -110.4,49.4 -110.4,110.4l0 110.5c0,61 49.4,110.4 110.4,110.4l110.5 0c60.9,0 110.4,-49.4 110.4,-110.4l0 -110.5c0,-61 -49.5,-110.4 -110.4,-110.4l0 0zm-110.5 220.9l0 -110.5 110.5 0 0 110.5 -110.5 0zm0 0z"/>
   <path class="fil3" d="M1890.3 2687l-110.4 0c-61,0 -110.4,49.5 -110.4,110.5l0 110.4c0,61 49.4,110.5 110.4,110.5l110.4 0c61,0 110.5,-49.5 110.5,-110.5l0 -110.4c0,-61 -49.5,-110.5 -110.5,-110.5l0 0zm-110.4 220.9l0 -110.4 110.4 0 0 110.4 -110.4 0zm0 0z"/>
   <path class="fil3" d="M2276.9 2687l-110.4 0c-61,0 -110.5,49.5 -110.5,110.5l0 110.4c0,61 49.5,110.5 110.5,110.5l110.4 0c61,0 110.4,-49.5 110.4,-110.5l0 -110.4c0,-61 -49.4,-110.5 -110.4,-110.5l0 0zm-110.4 220.9l0 -110.4 110.4 0 0 110.4 -110.4 0zm0 0z"/>
   <path class="fil3" d="M2663.5 2687l-110.5 0c-61,0 -110.4,49.5 -110.4,110.5l0 110.4c0,61 49.4,110.5 110.4,110.5l110.5 0c60.9,0 110.4,-49.5 110.4,-110.5l0 -110.4c0,-61 -49.5,-110.5 -110.4,-110.5l0 0zm-110.5 220.9l0 -110.4 110.5 0 0 110.4 -110.5 0zm0 0z"/>
   <path class="fil2" d="M4711.7 3068.5c-65.5,-62.6 -168.7,-62.6 -234.2,0l-946.7 946.7c-4.6,4.6 -8.3,10 -11,15.9l-133.3 289.5c-9.7,21 -5.2,45.8 11.1,62.1 16.3,16.3 41.1,20.8 62.1,11.2l289.5 -133.4c5.9,-2.7 11.3,-6.4 15.9,-11l946.6 -946.7c64.7,-64.7 64.7,-169.6 0,-234.3zm-1017.7 1095.8l-144.7 66.7 66.6 -144.7 705.9 -705.9 78 78.1 -705.8 705.8zm784.1 -784.1l-78.1 -78.1 38.7 -38.6 78.1 78 -38.7 38.7zm155.7 -155.7l-39 39 -78.1 -78.1 39.1 -39c21.8,-20.9 56.2,-20.9 78,0 21.6,21.5 21.6,56.5 0,78.1zm0 0z"/>
  </g>
 </g>
</svg>
