<?xml version="1.0" encoding="UTF-8"?>
<!DOCTYPE svg PUBLIC "-//W3C//DTD SVG 1.1//EN" "http://www.w3.org/Graphics/SVG/1.1/DTD/svg11.dtd">
<!-- Creator: CorelDRAW 2019 (64-Bit) -->
<svg xmlns="http://www.w3.org/2000/svg" xml:space="preserve" width="11.39mm" height="2.679mm" version="1.1" style="shape-rendering:geometricPrecision; text-rendering:geometricPrecision; image-rendering:optimizeQuality; fill-rule:evenodd; clip-rule:evenodd"
viewBox="0 0 11390 2679"
 xmlns:xlink="http://www.w3.org/1999/xlink"
 xmlns:xodm="http://www.corel.com/coreldraw/odm/2003">
 <defs>
  <style type="text/css">
   <![CDATA[
    .fil2 {fill:#FEFEFE}
    .fil0 {fill:#498763}
    .fil1 {fill:#4FA171}
   ]]>
  </style>
 </defs>
 <g id="Слой_x0020_2">
  <metadata id="CorelCorpID_0Corel-Layer"/>
  <g id="_283271468576">
   <path class="fil0" d="M72.1 15l11122.2 0c73.1,0 132.9,57.3 132.9,126.3l0 2426.5c0,69 -60.3,126.3 -132.9,126.3l-11122.2 0c-72.7,0 -133,-56.8 -133,-126.3l0 -2426.5c0,-69.5 59.8,-126.3 133,-126.3z"/>
   <path class="fil1" d="M70.7 15l171.5 0 0 2679.2 -171.5 0c-73,0 -133,-56.9 -133,-126.4l0 -2426.4c0,-69.6 59.8,-126.4 133,-126.4z"/>
   <g>
    <path class="fil2" d="M906 1001.7l141.1 0c13,0 23.6,-10.5 23.6,-23.5l0 -141.1c0,-13 -10.6,-23.5 -23.6,-23.5l-141.1 0c-13,0 -23.5,10.5 -23.5,23.5l0 141.1c0,13 10.5,23.5 23.5,23.5l0 0zm23.5 -141.1l94.1 0 0 94.1 -94.1 0 0 -94.1z"/>
    <path class="fil2" d="M1141.2 1001.7l141.2 0c13,0 23.5,-10.5 23.5,-23.5l0 -141.1c0,-13 -10.5,-23.5 -23.5,-23.5l-141.2 0c-13,0 -23.5,10.5 -23.5,23.5l0 141.1c0,13 10.5,23.5 23.5,23.5l0 0zm23.6 -141.1l94 0 0 94.1 -94 0 0 -94.1z"/>
    <path class="fil2" d="M906 1237l141.1 0c13,0 23.6,-10.6 23.6,-23.6l0 -141.1c0,-13 -10.6,-23.5 -23.6,-23.5l-141.1 0c-13,0 -23.5,10.5 -23.5,23.5l0 141.1c0,13 10.5,23.6 23.5,23.6zm23.5 -141.2l94.1 0 0 94.1 -94.1 0 0 -94.1z"/>
    <path class="fil2" d="M1141.2 1237l141.2 0c13,0 23.5,-10.6 23.5,-23.6l0 -141.1c0,-13 -10.5,-23.5 -23.5,-23.5l-141.2 0c-13,0 -23.5,10.5 -23.5,23.5l0 141.1c0,13 10.5,23.6 23.5,23.6zm23.6 -141.2l94 0 0 94.1 -94 0 0 -94.1z"/>
    <path class="fil2" d="M906 1472.2l141.1 0c13,0 23.6,-10.5 23.6,-23.5l0 -141.2c0,-13 -10.6,-23.5 -23.6,-23.5l-141.1 0c-13,0 -23.5,10.5 -23.5,23.5l0 141.2c0,13 10.5,23.5 23.5,23.5l0 0zm23.5 -141.1l94.1 0 0 94 -94.1 0 0 -94z"/>
    <path class="fil2" d="M1141.2 1472.2l141.2 0c13,0 23.5,-10.5 23.5,-23.5l0 -141.2c0,-13 -10.5,-23.5 -23.5,-23.5l-141.2 0c-13,0 -23.5,10.5 -23.5,23.5l0 141.2c0,13 10.5,23.5 23.5,23.5l0 0zm23.6 -141.1l94 0 0 94 -94 0 0 -94z"/>
    <path class="fil2" d="M1047.1 1707.4c13,0 23.6,-10.5 23.6,-23.5l0 -141.1c0,-13.1 -10.6,-23.6 -23.6,-23.6l-141.1 0c-13,0 -23.5,10.5 -23.5,23.6l0 141.1c0,13 10.5,23.5 23.5,23.5l141.1 0zm-117.6 -141.1l94.1 0 0 94.1 -94.1 0 0 -94.1z"/>
    <path class="fil2" d="M1141.2 1707.4l141.2 0c13,0 23.5,-10.5 23.5,-23.5l0 -141.1c0,-13.1 -10.5,-23.6 -23.5,-23.6l-141.2 0c-13,0 -23.5,10.5 -23.5,23.6l0 141.1c0,13 10.5,23.5 23.5,23.5l0 0zm23.6 -141.1l94 0 0 94.1 -94 0 0 -94.1z"/>
    <path class="fil2" d="M1658.7 1001.7l141.2 0c13,0 23.5,-10.5 23.5,-23.5l0 -141.1c0,-13 -10.5,-23.5 -23.5,-23.5l-141.2 0c-13,0 -23.5,10.5 -23.5,23.5l0 141.1c0,13 10.5,23.5 23.5,23.5l0 0zm23.6 -141.1l94 0 0 94.1 -94 0 0 -94.1z"/>
    <path class="fil2" d="M1894 1001.7l141.1 0c13,0 23.5,-10.5 23.5,-23.5l0 -141.1c0,-13 -10.5,-23.5 -23.5,-23.5l-141.1 0c-13,0 -23.6,10.5 -23.6,23.5l0 141.1c0,13 10.6,23.5 23.6,23.5l0 0zm23.5 -141.1l94.1 0 0 94.1 -94.1 0 0 -94.1z"/>
    <path class="fil2" d="M1658.7 1237l141.2 0c13,0 23.5,-10.6 23.5,-23.6l0 -141.1c0,-13 -10.5,-23.5 -23.5,-23.5l-141.2 0c-13,0 -23.5,10.5 -23.5,23.5l0 141.1c0,13 10.5,23.6 23.5,23.6zm23.6 -141.2l94 0 0 94.1 -94 0 0 -94.1z"/>
    <path class="fil2" d="M1894 1237l141.1 0c13,0 23.5,-10.6 23.5,-23.6l0 -141.1c0,-13 -10.5,-23.5 -23.5,-23.5l-141.1 0c-13,0 -23.6,10.5 -23.6,23.5l0 141.1c0,13 10.6,23.6 23.6,23.6zm23.5 -141.2l94.1 0 0 94.1 -94.1 0 0 -94.1z"/>
    <path class="fil2" d="M1658.7 1472.2l141.2 0c13,0 23.5,-10.5 23.5,-23.5l0 -141.2c0,-13 -10.5,-23.5 -23.5,-23.5l-141.2 0c-13,0 -23.5,10.5 -23.5,23.5l0 141.2c0,13 10.5,23.5 23.5,23.5l0 0zm23.6 -141.1l94 0 0 94 -94 0 0 -94z"/>
    <path class="fil2" d="M1894 1472.2l141.1 0c13,0 23.5,-10.5 23.5,-23.5l0 -141.2c0,-13 -10.5,-23.5 -23.5,-23.5l-141.1 0c-13,0 -23.6,10.5 -23.6,23.5l0 141.2c0,13 10.6,23.5 23.6,23.5l0 0zm23.5 -141.1l94.1 0 0 94 -94.1 0 0 -94z"/>
    <path class="fil2" d="M1658.7 1707.4l141.2 0c13,0 23.5,-10.5 23.5,-23.5l0 -141.1c0,-13.1 -10.5,-23.6 -23.5,-23.6l-141.2 0c-13,0 -23.5,10.5 -23.5,23.6l0 141.1c0,13 10.5,23.5 23.5,23.5l0 0zm23.6 -141.1l94 0 0 94.1 -94 0 0 -94.1z"/>
    <path class="fil2" d="M1894 1707.4l141.1 0c13,0 23.5,-10.5 23.5,-23.5l0 -141.1c0,-13.1 -10.5,-23.6 -23.5,-23.6l-141.1 0c-13,0 -23.6,10.5 -23.6,23.6l0 141.1c0,13 10.6,23.5 23.6,23.5l0 0zm23.5 -141.1l94.1 0 0 94.1 -94.1 0 0 -94.1z"/>
    <path class="fil2" d="M2176.2 766.5c13,0 23.6,-10.5 23.6,-23.5l0 -94.1c0,-13 -10.6,-23.5 -23.6,-23.5l-658.6 0c-13,0 -23.5,10.5 -23.5,23.5l0 94.1c0,13 10.5,23.5 23.5,23.5l23.5 0 0 94.1 -141.1 0 0 -94.1 23.5 0c13,0 23.5,-10.5 23.5,-23.5l0 -94.1c0,-13 -10.5,-23.5 -23.5,-23.5l-658.6 0c-13,0 -23.6,10.5 -23.6,23.5l0 94.1c0,13 10.6,23.5 23.6,23.5l23.5 0 0 1176.1 -23.5 0c-13,0 -23.6,10.6 -23.6,23.6l0 94.1c0,13 10.6,23.5 23.6,23.5l1411.3 0c13,0 23.6,-10.5 23.6,-23.5l0 -94.1c0,-13 -10.6,-23.6 -23.6,-23.6l-23.5 0 0 -1176.1 23.5 0zm-635.1 -94.1l611.6 0 0 47.1 -611.6 0 0 -47.1zm-141.1 1270.2l0 -235.2 141.1 0 0 235.2 -141.1 0zm0 -940.9l141.1 0 0 94.1 -141.1 0 0 -94.1zm0 141.2l141.1 0 0 47 -141.1 0 0 -47zm0 94.1l141.1 0 0 94.1 -141.1 0 0 -94.1zm0 141.1l141.1 0 0 47 -141.1 0 0 -47zm0 94.1l141.1 0 0 94.1 -141.1 0 0 -94.1zm0 141.1l141.1 0 0 47.1 -141.1 0 0 -47.1zm141.1 -705.7l0 47.1 -141.1 0 0 -47.1 141.1 0zm-752.7 -235.2l611.6 0 0 47.1 -611.6 0 0 -47.1zm47 94.1l517.5 0 0 1176.1 -141.1 0 0 -70.5c0,-64.9 -52.8,-117.6 -117.6,-117.6 -64.9,0 -117.6,52.7 -117.6,117.6l0 70.5 -141.2 0 0 -1176.1zm329.4 1176.1l-141.2 0 0 -70.5c0,-38.9 31.7,-70.6 70.6,-70.6 38.9,0 70.6,31.7 70.6,70.6l0 70.5zm987.9 94.1l-1364.3 0 0 -47 1364.3 0 0 47zm-235.2 -94.1l-141.2 0 0 -70.5c0,-38.9 31.7,-70.6 70.6,-70.6 38.9,0 70.6,31.7 70.6,70.6l0 70.5zm188.2 0l-141.2 0 0 -70.5c0,-64.9 -52.7,-117.6 -117.6,-117.6 -64.8,0 -117.6,52.7 -117.6,117.6l0 70.5 -141.1 0 0 -1176.1 517.5 0 0 1176.1z"/>
   </g>
  </g>
 </g>
</svg>
