<?xml version="1.0" encoding="UTF-8"?>
<!DOCTYPE svg PUBLIC "-//W3C//DTD SVG 1.1//EN" "http://www.w3.org/Graphics/SVG/1.1/DTD/svg11.dtd">
<!-- Creator: CorelDRAW 2019 (64-Bit) -->
<svg xmlns="http://www.w3.org/2000/svg" xml:space="preserve" width="61.667mm" height="32.46mm" version="1.1" style="shape-rendering:geometricPrecision; text-rendering:geometricPrecision; image-rendering:optimizeQuality; fill-rule:evenodd; clip-rule:evenodd"
viewBox="0 0 61667 32460"
 xmlns:xlink="http://www.w3.org/1999/xlink"
 xmlns:xodm="http://www.corel.com/coreldraw/odm/2003">
 <defs>
  <style type="text/css">
   <![CDATA[
    .fil0 {fill:#FEFEFE;fill-rule:nonzero}
   ]]>
  </style>
 </defs>
 <g id="Слой_x0020_1">
  <metadata id="CorelCorpID_0Corel-Layer"/>
  <g id="_699339538096">
   <path class="fil0" d="M49143.1 26.2l11861.6 0c163.4,0 311.6,66.8 418.7,173.9 107.2,108.5 173.9,256.8 173.9,418.7l0 9083.2 -677.4 0 0 -8998.4 -11776.8 0 0 -677.4z"/>
   <path class="fil0" d="M49143.1 32486l11861.6 0c163.4,0 311.6,-66.8 418.7,-173.9 107.2,-108.5 173.9,-256.8 173.9,-418.7l0 -9083.2 -677.4 0 0 8998.4 -11776.8 0 0 677.4z"/>
   <path class="fil0" d="M12384.4 26.2l-11861.6 0c-163.4,0 -311.6,66.8 -418.7,173.9 -107.2,108.5 -173.9,256.8 -173.9,418.7l0 9083.2 677.4 0 0 -8998.4 11776.8 0 0 -677.4z"/>
   <path class="fil0" d="M12384.4 32486l-11861.6 0c-163.4,0 -311.6,-66.8 -418.7,-173.9 -107.2,-108.5 -173.9,-256.8 -173.9,-418.7l0 -9083.2 677.4 0 0 8998.4 11776.8 0 0 677.4z"/>
  </g>
 </g>
</svg>
