<?xml version="1.0" encoding="UTF-8"?>
<!DOCTYPE svg PUBLIC "-//W3C//DTD SVG 1.1//EN" "http://www.w3.org/Graphics/SVG/1.1/DTD/svg11.dtd">
<!-- Creator: CorelDRAW 2019 (64-Bit) -->
<svg xmlns="http://www.w3.org/2000/svg" xml:space="preserve" width="11.388mm" height="2.679mm" version="1.1" style="shape-rendering:geometricPrecision; text-rendering:geometricPrecision; image-rendering:optimizeQuality; fill-rule:evenodd; clip-rule:evenodd"
viewBox="0 0 11388 2679"
 xmlns:xlink="http://www.w3.org/1999/xlink"
 xmlns:xodm="http://www.corel.com/coreldraw/odm/2003">
 <defs>
  <style type="text/css">
   <![CDATA[
    .fil0 {fill:#D9DADA}
    .fil1 {fill:#B1987F}
   ]]>
  </style>
 </defs>
 <g id="Слой_x0020_2">
  <metadata id="CorelCorpID_0Corel-Layer"/>
  <g id="_248352019184">
   <path class="fil0" d="M69.7 15l11122.3 0c73.2,0 133,57.3 133,126.3l0 2426.5c0,69 -60.4,126.3 -133,126.3l-11122.3 0c-72.6,0 -133,-56.8 -133,-126.3l0 -2426.5c0,-69.5 59.9,-126.3 133,-126.3z"/>
   <path class="fil1" d="M69.8 15l171.5 0 0 2679.2 -171.5 0c-73,0 -133.1,-56.9 -133.1,-126.4l0 -2426.4c0,-69.6 59.9,-126.4 133.1,-126.4z"/>
   <g>
    <path id="XMLID_1699_" class="fil1" d="M1167.8 1091.2c189.4,0 343.6,-154.2 343.6,-343.7 0,-189.4 -154.2,-343.6 -343.6,-343.6 -189.5,0 -343.7,154.2 -343.7,343.6 0,189.5 154.2,343.7 343.7,343.7zm0 -613c148.5,0 269.3,120.8 269.3,269.3 0,148.6 -120.8,269.4 -269.3,269.4 -148.6,0 -269.4,-120.8 -269.4,-269.4 0,-148.5 120.8,-269.3 269.4,-269.3z"/>
    <path id="XMLID_1701_" class="fil1" d="M1197.3 829.2c7.2,7.2 16.7,10.8 26.2,10.8 9.5,0 19.1,-3.6 26.3,-10.9 14.5,-14.5 14.5,-38.1 -0.1,-52.5l-44.6 -44.5 0 -164.8c0,-20.5 -16.6,-37.2 -37.1,-37.2 -20.5,0 -37.1,16.7 -37.1,37.2l0 180.2c0,9.9 3.9,19.4 10.9,26.3l55.5 55.4z"/>
    <path id="XMLID_1706_" class="fil1" d="M2688.2 1636.7l-228.5 0c-31.4,-44.6 -78.6,-76.3 -132.5,-88.1l-163.2 -35.7c66.8,-45 110.8,-121.4 110.8,-207.9l0 -90.6 0 -42 0 -9.4c0,-138.2 -112.4,-250.6 -250.6,-250.6 -138.2,0 -250.6,112.4 -250.6,250.6l0 9.4 0 42 0 90.6c0,86.4 43.9,162.7 110.6,207.8l-163.2 35.8c-7,1.5 -13.8,3.4 -20.5,5.5l0 -307.3c0,-20.5 -16.7,-37.1 -37.2,-37.1l-252.5 0c-20.5,0 -37.1,16.6 -37.1,37.1 0,20.5 16.6,37.2 37.1,37.2l215.4 0 0 519.8 -252.5 0 0 -185.6c0,-61.5 -50,-111.4 -111.4,-111.4 -61.4,0 -111.4,49.9 -111.4,111.4l0 185.6 -252.5 0 0 -519.8 215.3 0c20.5,0 37.2,-16.7 37.2,-37.2 0,-20.5 -16.7,-37.1 -37.2,-37.1l-252.5 0c-20.5,0 -37.1,16.6 -37.1,37.1l0 594.2c0,20.5 16.6,37.1 37.1,37.1l289.7 0 0 70.6 -3.7 0c-63.5,0 -115.2,51.6 -115.2,115.1l0 18.6 -170.8 0c-20.5,0 -37.1,16.6 -37.1,37.1l0 148.5c0,20.5 16.6,37.2 37.1,37.2l1827 0c20.5,0 37.2,-16.7 37.2,-37.2l0 -148.5 0 -148.6 0 -148.5 0 -148.5c0,-20.5 -16.7,-37.2 -37.2,-37.2zm-225.8 445.7l-212.4 0 0 -74.3 401.1 0 0 74.3 -188.7 0zm188.7 -148.6l-401.1 0 0 -74.3 401.1 0 0 74.3zm0 -148.5l-401.1 0 0 -74.3 189 0c0.1,0 0.2,0 0.3,0 0.1,0 0.2,0 0.3,0l211.5 0 0 74.3zm-803.2 -622.3c0,-97.3 79.1,-176.4 176.3,-176.4 92.6,0 168.7,71.8 175.8,162.6l-86.3 -50.8c-15.7,-9.1 -35.7,-5.7 -47.3,8.2 -37.6,44.9 -92.8,70.6 -151.3,70.6l-67.2 0 0 -4.8 0 -9.4 0 0zm0 88.5l67.2 0c69.9,0 136.3,-26.7 186.4,-74.1l99 58.2 0 69.4c0,97.3 -79.1,176.4 -176.3,176.4 -97.2,0 -176.3,-79.1 -176.3,-176.4l0 -53.5 0 0zm234.5 297.2l-58.8 157.1 -58.8 -157.3c19,4.6 38.9,7.1 59.4,7.1 20,0 39.5,-2.4 58.2,-6.9zm-419.1 329.4c20.5,0 37.2,-16.6 37.2,-37.1l0 -206.6c11.4,-6 23.6,-10.5 36.4,-13.3l162.5 -35.6 89.5 239.3c5.4,14.5 19.2,24.2 34.7,24.2 15.5,0 29.4,-9.7 34.8,-24.2l89.5 -239.3 163.5 35.7c14.3,3.1 27.9,8.4 40.4,15.5l-138.9 0c-20.5,0 -37.1,16.7 -37.1,37.2l0 148.5 0 148.5 0 111.4 -552.7 0 0 -204.2 40.2 0 0 0zm-114.4 0l0 204.3 -56.4 0 0 -18.6c0,-63.5 -51.6,-115.1 -115.1,-115.1l-3.7 0 0 -70.6 175.2 0zm-323.8 -259.9c0,-20.5 16.7,-37.2 37.2,-37.2 20.5,0 37.1,16.7 37.1,37.2l0 330.5 -74.3 0 0 -330.5zm-118.8 445.6c0,-22.5 18.3,-40.9 40.9,-40.9l40.8 0 148.5 0 40.9 0c22.5,0 40.8,18.4 40.8,40.9l0 18.6 -311.9 0 0 -18.6zm1544.8 167.1l-1752.7 0 0 -74.3 1752.7 0 0 74.3z"/>
    <path id="XMLID_1768_" class="fil1" d="M1236 1220.6c-6.9,6.9 -10.9,16.5 -10.9,26.2 0,9.8 4,19.4 10.9,26.3 6.9,6.9 16.5,10.9 26.3,10.9 9.7,0 19.3,-4 26.2,-10.9 6.9,-6.9 10.9,-16.5 10.9,-26.3 0,-9.7 -4,-19.3 -10.9,-26.2 -6.9,-6.9 -16.5,-10.9 -26.2,-10.9 -9.8,0 -19.4,4 -26.3,10.9z"/>
   </g>
  </g>
 </g>
</svg>
