<?xml version="1.0" encoding="UTF-8"?>
<!DOCTYPE svg PUBLIC "-//W3C//DTD SVG 1.1//EN" "http://www.w3.org/Graphics/SVG/1.1/DTD/svg11.dtd">
<!-- Creator: CorelDRAW 2019 (64-Bit) -->
<svg xmlns="http://www.w3.org/2000/svg" xml:space="preserve" width="11.388mm" height="2.679mm" version="1.1" style="shape-rendering:geometricPrecision; text-rendering:geometricPrecision; image-rendering:optimizeQuality; fill-rule:evenodd; clip-rule:evenodd"
viewBox="0 0 11388 2679"
 xmlns:xlink="http://www.w3.org/1999/xlink"
 xmlns:xodm="http://www.corel.com/coreldraw/odm/2003">
 <defs>
  <style type="text/css">
   <![CDATA[
    .fil0 {fill:#D9DADA}
    .fil1 {fill:#B1987F}
   ]]>
  </style>
 </defs>
 <g id="Слой_x0020_2">
  <metadata id="CorelCorpID_0Corel-Layer"/>
  <g id="_247145304736">
   <path class="fil0" d="M69.6 15l11122.3 0c73.1,0 132.9,57.3 132.9,126.3l0 2426.5c0,69 -60.3,126.3 -132.9,126.3l-11122.3 0c-72.6,0 -132.9,-56.8 -132.9,-126.3l0 -2426.5c0,-69.5 59.8,-126.3 132.9,-126.3z"/>
   <path class="fil1" d="M69.7 15l171.5 0 0 2679.2 -171.5 0c-73,0 -133,-56.9 -133,-126.4l0 -2426.4c0,-69.6 59.8,-126.4 133,-126.4z"/>
   <g>
    <path class="fil1" d="M2051.7 1590.2c-1.4,-2.5 -3,-4.9 -4.6,-7 -15.5,-21.7 -38.6,-36.1 -65,-40.4 -26.2,-4.3 -52.8,1.8 -74.5,17.4l-286.8 204.8 -299.6 0c-14.1,0 -25.7,-11.5 -25.7,-25.7 0,-14.2 11.6,-25.6 25.7,-25.6l166.7 0c49.5,0 89.8,-40.3 89.8,-89.8 0,-0.3 0,-2.7 0,-2.9 -1.6,-49.5 -43.4,-88.1 -91.8,-86.9l-333.7 0c-29.6,0.3 -58.4,10.8 -81.1,29.8l-125.4 104.4c-5.9,4.9 -9.3,12.1 -9.3,19.7l0 307.8c0,14.2 11.5,25.7 25.7,25.7l636.4 0c41.7,-0.1 82.3,-14.7 114.3,-41.3l311 -256.9c42.3,-30.1 54.5,-88.6 27.9,-133.1zm-59.1 92.4l-312.4 258.1c-23,19 -52,29.4 -81.7,29.5l-610.8 0 0 -270.2 116.3 -96.7c13.6,-11.4 30.9,-17.8 48.4,-17.9l334.3 0c21.3,-0.1 39,16 39.7,38.5 0,21.2 -17.2,38.5 -38.5,38.5l-166.7 0c-42.4,0 -77,34.5 -77,76.9 0,42.4 34.6,77 77,77l307.8 0c5.4,0 10.6,-1.7 15,-4.8l293.5 -209.6c10.6,-7.6 23.4,-10.6 36.3,-8.5 12.8,2.1 24.1,9.1 31.8,19.9 0.8,1 1.5,2.1 2.1,3.2 13,21.7 7,50.3 -15.1,66.1z"/>
    <path class="fil1" d="M961.3 1636.7l-281.4 0 0 51.3 255.8 0 0 384.8 -255.8 0 0 51.3 281.4 0c14.2,0 25.7,-11.5 25.7,-25.7l0 -436c0,-14.2 -11.5,-25.7 -25.7,-25.7z"/>
    <path class="fil1" d="M808.2 1867.6c-42.5,0 -77,34.5 -77,76.9 0,42.5 34.5,77 77,77 42.4,0 76.9,-34.5 76.9,-77 0,-42.4 -34.5,-76.9 -76.9,-76.9zm0 102.6c-14.2,0 -25.7,-11.5 -25.7,-25.7 0,-14.1 11.5,-25.6 25.7,-25.6 14.1,0 25.6,11.5 25.6,25.6 0,14.2 -11.5,25.7 -25.6,25.7z"/>
    <path class="fil1" d="M2193.4 1380.2l-1487.8 0c-14.2,0 -25.7,11.4 -25.7,25.6 0,99 80.5,179.6 179.6,179.6l1180 0c98.9,0 179.5,-80.6 179.5,-179.6 0,-14.2 -11.4,-25.6 -25.6,-25.6zm-153.9 153.9l-1180 0c-62,0 -113.8,-44.2 -125.7,-102.6l1431.3 0c-11.9,58.4 -63.7,102.6 -125.6,102.6z"/>
    <path class="fil1" d="M1449.5 713.2c-367.8,0 -667,299.2 -667,667l0 25.6c0,14.2 11.5,25.7 25.7,25.7l1282.6 0c14.1,0 25.6,-11.5 25.6,-25.7l0 -25.6c0,-367.8 -299.2,-667 -666.9,-667zm-615.7 667c0,-339.5 276.2,-615.7 615.7,-615.7 339.4,0 615.6,276.2 615.6,615.7l-1231.3 0z"/>
    <path class="fil1" d="M1027.5 1005.8c-17.9,20.2 -34.5,41.8 -49.4,64.2l42.8 28.3c13.5,-20.4 28.7,-40.1 45,-58.4l-38.4 -34.1z"/>
    <path class="fil1" d="M1449.5 815.8c-144.1,0.1 -281.3,54.5 -386.2,153.2l35.1 37.4c95.4,-89.7 220.1,-139.2 351.1,-139.3l0 -51.3z"/>
    <rect class="fil1" x="1372.5" y="585" width="153.9" height="51.3"/>
    <rect class="fil1" x="1423.8" y="610.6" width="51.3" height="128.3"/>
   </g>
  </g>
 </g>
</svg>
