<?xml version="1.0" encoding="UTF-8"?>
<!DOCTYPE svg PUBLIC "-//W3C//DTD SVG 1.1//EN" "http://www.w3.org/Graphics/SVG/1.1/DTD/svg11.dtd">
<!-- Creator: CorelDRAW 2019 (64-Bit) -->
<svg xmlns="http://www.w3.org/2000/svg" xml:space="preserve" width="11.388mm" height="2.679mm" version="1.1" style="shape-rendering:geometricPrecision; text-rendering:geometricPrecision; image-rendering:optimizeQuality; fill-rule:evenodd; clip-rule:evenodd"
viewBox="0 0 11388 2679"
 xmlns:xlink="http://www.w3.org/1999/xlink"
 xmlns:xodm="http://www.corel.com/coreldraw/odm/2003">
 <defs>
  <style type="text/css">
   <![CDATA[
    .fil0 {fill:#498763}
    .fil1 {fill:#4FA171}
    .fil2 {fill:white}
   ]]>
  </style>
 </defs>
 <g id="Слой_x0020_1">
  <metadata id="CorelCorpID_0Corel-Layer"/>
  <g id="_247153559904">
   <path class="fil0" d="M69.7 15l11122.3 0c73.1,0 132.9,57.3 132.9,126.3l0 2426.5c0,69 -60.3,126.3 -132.9,126.3l-11122.3 0c-72.7,0 -133,-56.8 -133,-126.3l0 -2426.5c0,-69.5 59.8,-126.3 133,-126.3z"/>
   <path class="fil1" d="M69.7 15l171.5 0 0 2679.2 -171.5 0c-73,0 -133,-56.9 -133,-126.4l0 -2426.4c0,-69.6 59.8,-126.4 133,-126.4z"/>
   <g>
    <path class="fil2" d="M2551 1191.5c5.4,4.3 12,6.5 18.7,6.5 4.5,0 9.1,-1 13.3,-3 10.4,-5.1 17.1,-15.7 17.1,-27.3l0 -161.9c0,-9.3 -4.3,-18 -11.6,-23.8l-494 -389.2c-34.6,-27.3 -83,-27.3 -117.7,0l-185.9 146.5 0 -57.1c0,-16.8 -13.6,-30.4 -30.4,-30.4l-129.4 0c-16.8,0 -30.4,13.6 -30.4,30.4l0 206.9 -117.9 92.9c-7.3,5.7 -11.6,14.5 -11.6,23.8l0 161.9c0,11.6 6.7,22.2 17.1,27.3 10.5,5 22.9,3.7 32.1,-3.5l15.6 -12.3 0 295.7 -283.1 -223c-34.6,-27.3 -83,-27.3 -117.7,0l-396.9 312.7c-7.3,5.8 -11.5,14.6 -11.5,23.9l0 161.8c0,11.6 6.6,22.2 17.1,27.3 4.2,2 8.7,3 13.2,3 6.7,0 13.4,-2.2 18.8,-6.5l15.6 -12.3 0 314.2 -34.4 0c-16.7,0 -30.3,13.6 -30.3,30.3 0,16.8 13.6,30.4 30.3,30.4l1812.6 0c16.8,0 30.4,-13.6 30.4,-30.4 0,-16.7 -13.6,-30.3 -30.4,-30.3l-34.4 0 0 -896.8 15.7 12.3zm-889.6 -479l68.8 0 0 74.6 -68.8 54.2 0 -128.8 0 0zm-129.5 308.1l482.5 -380.2c12.5,-9.8 30,-9.8 42.6,0l482.4 380.2 0 84.5 -485 -382c-5.5,-4.4 -12.1,-6.6 -18.7,-6.6 -6.7,0 -13.3,2.2 -18.8,6.6l-485 382 0 -84.5 0 0zm-744.4 582.6l385.3 -303.6c12.5,-9.9 30.1,-9.9 42.6,0l320.6 252.6 0 84.6 -323.1 -254.6c-11,-8.7 -26.6,-8.7 -37.6,0l-387.8 305.6 0 -84.6zm64.7 110.8l341.9 -269.3 341.9 269.3 0 362 -133.5 0 0 -358.1c0,-16.7 -13.6,-30.3 -30.4,-30.3l-356 0c-16.8,0 -30.4,13.6 -30.4,30.3l0 358.1 -133.5 0 0 -362 0 0zm194.2 163.7l295.4 0 0 68.8 -295.4 0 0 -68.8zm295.4 -60.6l-295.4 0 0 -68.8 295.4 0 0 68.8zm-295.4 190.1l295.4 0 0 68.8 -295.4 0 0 -68.8zm878 -157.7c-0.7,0 -1.3,-0.1 -2,-0.1 -8,0 -15.8,3.3 -21.5,8.9 -5.6,5.6 -8.9,13.5 -8.9,21.5 0,7.9 3.3,15.8 8.9,21.4 5.7,5.7 13.5,8.9 21.5,8.9 0.7,0 1.3,0 2,-0.1l0 166 -133.5 0 0 -392.5 133.5 0 0 166zm550.3 226.5l-489.6 0 0 -422.8c0,-16.8 -13.6,-30.3 -30.4,-30.3l-194.2 -0.1c-16.7,0 -30.3,13.6 -30.3,30.4l0 422.8 -133.5 0 0 -944.6 439 -345.9 439 345.9 0 944.6 0 0z"/>
    <path class="fil2" d="M2116.6 1942.5l194.2 0c16.8,0 30.3,-13.6 30.3,-30.4l0 -258.9c0,-16.8 -13.5,-30.3 -30.3,-30.3l-194.2 -0.1c-16.8,0 -30.4,13.6 -30.4,30.4l0 258.9c0,16.8 13.6,30.4 30.4,30.4l0 0zm30.3 -60.7l0 -101.2 133.5 0 0 101.2 -133.5 0zm133.5 -198.3l0 36.5 -133.5 0 0 -36.5 133.5 0z"/>
    <path class="fil2" d="M2116.6 1489.3l194.2 0c16.8,0 30.3,-13.6 30.3,-30.3l0 -259c0,-16.7 -13.5,-30.3 -30.3,-30.3l-194.2 0c-16.8,0 -30.4,13.6 -30.4,30.3l0 259c0,16.7 13.6,30.3 30.4,30.3l0 0zm30.3 -60.7l0 -101.1 133.5 0 0 101.1 -133.5 0zm133.5 -198.2l0 36.4 -133.5 0 0 -36.4 133.5 0z"/>
    <path class="fil2" d="M1954.7 1169.7l-194.2 0c-16.7,0 -30.3,13.6 -30.3,30.3l0 259c0,16.7 13.6,30.3 30.3,30.3l194.2 0c16.8,0 30.4,-13.6 30.4,-30.3l0 -259c0,-16.7 -13.6,-30.3 -30.4,-30.3l0 0zm-30.3 60.7l0 36.4 -133.5 0 0 -36.4 133.5 0zm-133.5 198.2l0 -101.1 133.5 0 0 101.1 -133.5 0z"/>
   </g>
  </g>
 </g>
</svg>
